# xmcd
#
# Track frame offsets: 
#        150
#        15730
#        31890
#        45130
#        67217
#        79425
#        92675
#        110902
#        125472
#        141017
#        154725
#        175017
#        191765
#
# Disc length: 2753 seconds
#
# Revision: 2
# Processed by: cddbd v1.4PL0 Copyright (c) Steve Scherf et al.
# Submitted via: ExactAudioCopy v0.90b4
#
DISCID=ad0abf0d
DTITLE=Omar and The Howlers - Courts Of Lulu
DYEAR=1993
DGENRE=Blues
TTITLE0=Rose Tattoo
TTITLE1=Do It For Daddy
TTITLE2=False Faces
TTITLE3=Pushin' Fire
TTITLE4=Booger Boy
TTITLE5=Jumpin' The Gun
TTITLE6=I've Tried
TTITLE7=Firewalker
TTITLE8=Special Love
TTITLE9=Scared To Speak
TTITLE10=I'm Wild About You
TTITLE11=Moon Bit Fool
TTITLE12=South Congress Blues
EXTD=
EXTT0=
EXTT1=
EXTT2=
EXTT3=
EXTT4=
EXTT5=
EXTT6=
EXTT7=
EXTT8=
EXTT9=
EXTT10=
EXTT11=
EXTT12=
PLAYORDER=
